<svg width="53" height="40" viewBox="0 0 53 40" fill="none" xmlns="http://www.w3.org/2000/svg">
<path d="M15.2031 0.0700194C14.3861 0.162952 13.132 0.520386 12.3221 0.892118C9.79949 2.02876 7.87167 4.18766 7.03317 6.79693C6.71784 7.79775 6.596 8.5841 6.596 9.7136C6.596 11.8796 7.10484 13.4381 8.55966 15.7542C8.88216 16.2618 9.61316 17.4413 10.1793 18.3635C13.2538 23.3747 16.1778 27.9928 16.314 28.0428C16.3785 28.0643 16.4716 28.0643 16.529 28.0285C16.5791 27.9999 17.088 27.235 17.6541 26.3343C18.2203 25.4264 19.1161 23.9967 19.6536 23.1531C20.184 22.3096 21.2159 20.6511 21.9469 19.4715C22.6779 18.292 23.6526 16.7122 24.1184 15.9687C25.3081 14.06 25.7453 13.0735 26.0678 11.5723C26.2469 10.7216 26.2469 8.71278 26.0678 7.85494C25.6449 5.8676 24.7921 4.27345 23.3946 2.87945C21.2589 0.734847 18.2776 -0.287415 15.2031 0.0700194ZM17.2886 4.8096C17.5753 4.86679 17.9551 4.96687 18.1343 5.03121C19.0731 5.36719 20.2126 6.32512 20.7358 7.21156C21.1873 7.98361 21.3736 8.69133 21.3808 9.60637C21.3879 10.8431 21.0798 11.7581 20.3273 12.7661C18.9656 14.5747 16.3355 15.1752 14.2356 14.1529C12.4941 13.3022 11.4693 11.658 11.4693 9.7136C11.4693 6.60392 14.293 4.23055 17.2886 4.8096Z" fill="#8A84FF"/>
<path d="M42.7159 8.46257C41.4259 8.87005 40.9815 10.6215 41.9275 11.558C42.3289 11.9654 42.68 12.1084 43.2892 12.1084C43.712 12.1084 43.8912 12.0727 44.142 11.9368C44.529 11.7367 44.8372 11.415 45.0164 11.0361C45.1955 10.6501 45.1955 9.84942 45.0164 9.46339C44.6222 8.61985 43.6045 8.17663 42.7159 8.46257Z" fill="#8A84FF"/>
<path d="M32.8976 11.5222C32.7614 11.5723 32.5822 11.7152 32.4891 11.8511C32.3457 12.0655 32.3242 12.1799 32.3242 12.7947V13.5024H32.9621C33.4494 13.5024 33.6286 13.531 33.7146 13.6168C33.8651 13.7669 33.8579 13.9027 33.6859 14.0743C33.5497 14.2101 33.4494 14.2173 31.2277 14.2173C29.5221 14.2173 28.8914 14.2387 28.8269 14.3031C28.7767 14.3531 28.7409 14.4961 28.7409 14.6176C28.7409 15.0608 28.8126 15.0751 31.1561 15.0751C33.2057 15.0751 33.2559 15.0751 33.3276 15.2252C33.4494 15.4468 33.3562 15.7113 33.1341 15.7614C33.0266 15.79 31.7007 15.8186 30.1886 15.8186C27.5226 15.8257 27.4366 15.8329 27.3363 15.9687C27.2789 16.0473 27.2359 16.2046 27.2503 16.3261C27.2861 16.6693 27.4868 16.7265 28.7051 16.7122C29.2999 16.7122 30.3534 16.7122 31.0557 16.7122L32.3242 16.7193V17.5772C32.3242 18.5422 32.3959 18.7853 32.7542 18.9711C32.9262 19.0641 33.3849 19.0784 35.6424 19.0784C38.2869 19.0784 38.3299 19.0784 38.5234 18.9211C38.9104 18.6209 38.9175 18.5565 38.9175 15.2395C38.9175 12.4087 38.9104 12.1584 38.7885 11.9368C38.5162 11.4364 38.466 11.4293 35.6567 11.4364C33.9081 11.4364 33.0696 11.465 32.8976 11.5222Z" fill="#8A84FF"/>
<path d="M41.6265 12.6732C41.2252 12.7804 40.8454 13.0592 40.6519 13.3737C40.4799 13.6668 39.4909 17.6486 39.4909 18.0418C39.498 18.4207 39.6987 18.8568 39.9854 19.0998C40.2362 19.3071 40.4225 19.3715 41.9634 19.7575C42.5582 19.9076 43.0527 20.0434 43.067 20.0506C43.0814 20.0649 42.981 20.6797 42.852 21.416C42.6155 22.7385 42.551 23.5677 42.6729 23.8108C42.723 23.9252 42.6729 23.9395 42.0924 23.9395C41.175 23.9395 41.2109 24.011 41.2109 22.2524C41.2109 20.4652 41.1177 20.2007 40.401 19.9005C40.1789 19.8075 39.6915 19.7932 37.2477 19.7932H34.3596L33.9726 19.9863C33.4924 20.2293 33.2559 20.6296 33.2559 21.1729C33.2559 21.5089 33.2344 21.5518 32.8331 21.9807C32.2669 22.5812 31.8297 23.5106 31.8226 24.1325C31.8226 24.347 32.1594 24.7258 32.3601 24.7258C32.5751 24.7258 32.6396 24.6258 32.7471 24.1182C33.0337 22.7957 34.0657 21.7949 35.3916 21.5661C36.6959 21.3445 38.1005 22.0808 38.6954 23.3104C38.939 23.818 39.0967 24.5614 39.0322 24.9403C39.0107 25.0761 39.0179 25.2334 39.0537 25.2834C39.0967 25.3549 39.8492 25.3764 42.723 25.3692C46.0914 25.3692 46.3493 25.3621 46.507 25.2405C46.8725 24.976 47.0947 24.6115 47.195 24.1325C47.2452 23.8751 47.3813 23.4748 47.4888 23.2461C47.7612 22.6742 48.5208 21.9235 49.0942 21.659C49.5242 21.466 49.5457 21.4446 49.7607 20.9656C50.0402 20.3294 50.0975 19.879 49.9183 19.7432C49.8395 19.6932 49.6603 19.6503 49.5098 19.6503H49.2375L49.2518 19.1642L49.2733 18.6852L49.0297 18.6137C48.8075 18.5494 48.7502 18.4707 48.5065 17.9489L48.227 17.3555L48.4133 17.1339C48.5638 16.9624 48.5925 16.848 48.5925 16.4905C48.5925 16.1117 48.571 16.0402 48.3703 15.8472L48.1553 15.6256L46.2633 15.6756C44.4502 15.7256 44.3714 15.7256 44.2997 15.5898C44.2639 15.5183 44.0775 15.0251 43.8984 14.4961C43.5042 13.3523 43.3465 13.0949 42.8879 12.8447C42.4435 12.6088 42.0565 12.5516 41.6265 12.6732ZM43.024 16.8551C43.0742 16.9552 43.2247 17.0982 43.3609 17.1768C43.5759 17.3055 43.7694 17.3341 44.8229 17.3627L46.034 17.3984L46.4927 18.678C46.7364 19.3858 46.9442 20.0649 46.9442 20.1936C46.9442 20.3222 46.8295 20.694 46.6933 21.0157C46.1272 22.3239 45.4894 23.6964 45.3819 23.8108C45.2959 23.918 45.1525 23.9395 44.6724 23.9395C44.3499 23.9395 44.0775 23.9252 44.0775 23.9037C44.0775 23.8823 44.1205 23.7894 44.1779 23.7036C44.3355 23.4677 45.0379 19.5144 44.9805 19.1999C44.8874 18.7209 44.6437 18.5565 43.4469 18.1776C42.68 17.9417 42.3575 17.8059 42.3575 17.7344C42.3575 17.6701 42.4435 17.3055 42.551 16.9052L42.7445 16.1903L42.8377 16.4334C42.8879 16.5692 42.9739 16.7622 43.024 16.8551Z" fill="#8A84FF"/>
<path d="M28.8341 17.5914C28.6693 17.7916 28.6693 17.9846 28.8198 18.1776L28.9703 18.3635L30.1886 18.3492L31.4141 18.3278L31.5646 18.1276C31.7007 17.9417 31.7007 17.9131 31.6004 17.7344L31.4929 17.5414L30.2029 17.52C29.2211 17.5057 28.8843 17.5271 28.8341 17.5914Z" fill="#8A84FF"/>
<path d="M49.6173 22.2095C48.8935 22.4668 48.4564 22.8743 48.1267 23.6035C47.8114 24.3041 47.8329 25.1476 48.1769 25.8267C48.399 26.2557 48.9293 26.7775 49.3737 26.992C49.7248 27.1707 49.861 27.1921 50.4558 27.1921C51.0435 27.1921 51.194 27.1635 51.538 27.0063C52.0827 26.7489 52.4625 26.3915 52.7563 25.8553C52.9928 25.4264 53 25.3692 53 24.6543C53 23.9538 52.9857 23.8751 52.7707 23.4677C52.5127 22.9673 52.1257 22.5955 51.5882 22.3239C51.0793 22.0594 50.1763 22.0093 49.6173 22.2095ZM51.1008 23.3819C51.5738 23.6249 51.8318 23.9967 51.8748 24.4756C51.9967 25.9125 50.3483 26.6345 49.4023 25.5622C48.958 25.0547 48.9222 24.4542 49.302 23.8537C49.6818 23.2604 50.4558 23.0602 51.1008 23.3819Z" fill="#8A84FF"/>
<path d="M35.1909 22.2595C34.6606 22.4097 34.1087 22.7957 33.8006 23.2461C32.6969 24.8545 33.7504 27.0706 35.6926 27.2136C36.9396 27.2994 38.0145 26.5059 38.3227 25.2763C38.423 24.8545 38.423 24.7187 38.3514 24.3112C38.2439 23.7179 37.9859 23.2318 37.5702 22.86C36.9252 22.2595 36.0151 22.0308 35.1909 22.2595ZM36.3949 23.4033C36.7461 23.5534 36.9754 23.7751 37.1331 24.1182C37.4627 24.8331 37.1331 25.6623 36.3949 25.9769C35.7069 26.2628 34.9257 25.9483 34.6104 25.262C34.0872 24.1325 35.2482 22.9315 36.3949 23.4033Z" fill="#8A84FF"/>
<path d="M2.35335 22.5741C1.76569 22.7671 1.37869 23.0101 0.927188 23.482C0.117358 24.3398 -0.183641 25.4836 0.110191 26.6202C0.267857 27.2064 0.568856 27.7068 1.05619 28.1715C1.50769 28.5933 1.75852 28.7505 2.32468 28.9436L2.69018 29.0651L2.72601 31.0596C2.76185 33.0397 2.76901 33.0612 2.96251 33.5187C3.43551 34.6411 4.08768 35.2558 5.19134 35.6276L5.72884 35.8063H24.7849L25.0071 35.6204C25.4156 35.2844 25.3654 34.6411 24.9139 34.3694C24.6989 34.2407 24.3621 34.2336 15.2963 34.2336C4.88317 34.2336 5.54967 34.2622 4.96201 33.7618C4.79717 33.6259 4.58217 33.3329 4.46751 33.1041L4.26684 32.6966L4.24534 30.8666L4.21668 29.0293L4.74701 28.7791C5.64284 28.3502 6.30217 27.5353 6.56017 26.5487C6.94717 25.0475 6.19467 23.4534 4.75417 22.7456C4.26684 22.5097 4.16651 22.4811 3.49285 22.4597C2.91951 22.4454 2.67585 22.4668 2.35335 22.5741ZM4.23101 24.2397C4.49618 24.397 4.68967 24.59 4.84017 24.8259C5.03367 25.1405 5.05517 25.2405 5.05517 25.7624C5.05517 26.2842 5.03367 26.3843 4.84017 26.6917C4.71834 26.8847 4.48184 27.1421 4.31701 27.2636C4.05184 27.4423 3.92284 27.4781 3.48568 27.4995C2.36768 27.5567 1.57935 26.8418 1.57935 25.7624C1.57935 24.733 2.31035 24.0181 3.37101 24.011C3.77951 24.011 3.89418 24.0396 4.23101 24.2397Z" fill="#8A84FF"/>
<path d="M17.7115 28.8435C17.3245 29.1652 17.3531 29.8014 17.7688 30.073C17.9336 30.1803 18.507 30.1946 24.1184 30.2303C30.2818 30.2661 30.2817 30.2661 30.5756 30.4233C30.7332 30.5091 30.9841 30.7093 31.1274 30.8666C31.5287 31.3098 31.6076 31.6887 31.6076 33.2256C31.6076 34.1621 31.6434 34.6911 31.7151 35.0128C31.8369 35.5203 32.1451 36.1494 32.4747 36.5426C32.7757 36.9072 33.4852 37.3576 34.0227 37.522C34.4671 37.6578 34.6821 37.665 39.3475 37.665H44.2065L44.4287 38.1368C44.7154 38.7373 45.3389 39.3592 45.9624 39.6594C48.227 40.7389 50.8142 39.1233 50.8142 36.6284C50.8142 35.3559 50.0545 34.1192 48.9365 33.5759C47.023 32.6394 44.7225 33.7046 44.1994 35.7634L44.1134 36.0922L34.6032 36.1065L34.2162 35.9135C34.0084 35.8134 33.7361 35.6061 33.6142 35.4632C33.2487 35.0199 33.1842 34.7054 33.1842 33.3114C33.1842 31.7601 33.1126 31.274 32.7829 30.5949C32.3314 29.6727 31.4356 28.9579 30.4609 28.7362C30.2531 28.6862 27.9598 28.6576 24.0324 28.6576H17.9336L17.7115 28.8435ZM48.1339 34.9413C48.8577 35.2701 49.2375 35.842 49.2375 36.5998C49.2375 37.5935 48.5854 38.3298 47.625 38.4299C46.2275 38.5728 45.2027 37.0859 45.8405 35.8206C46.2562 34.9842 47.324 34.5767 48.1339 34.9413Z" fill="#8A84FF"/>
</svg>
